%TF.GenerationSoftware,KiCad,Pcbnew,(6.0.7)*%
%TF.CreationDate,2022-09-12T19:31:41+02:00*%
%TF.ProjectId,Analog2HDMI,416e616c-6f67-4324-9844-4d492e6b6963,rev?*%
%TF.SameCoordinates,Original*%
%TF.FileFunction,Soldermask,Bot*%
%TF.FilePolarity,Negative*%
%FSLAX46Y46*%
G04 Gerber Fmt 4.6, Leading zero omitted, Abs format (unit mm)*
G04 Created by KiCad (PCBNEW (6.0.7)) date 2022-09-12 19:31:41*
%MOMM*%
%LPD*%
G01*
G04 APERTURE LIST*
G04 Aperture macros list*
%AMRoundRect*
0 Rectangle with rounded corners*
0 $1 Rounding radius*
0 $2 $3 $4 $5 $6 $7 $8 $9 X,Y pos of 4 corners*
0 Add a 4 corners polygon primitive as box body*
4,1,4,$2,$3,$4,$5,$6,$7,$8,$9,$2,$3,0*
0 Add four circle primitives for the rounded corners*
1,1,$1+$1,$2,$3*
1,1,$1+$1,$4,$5*
1,1,$1+$1,$6,$7*
1,1,$1+$1,$8,$9*
0 Add four rect primitives between the rounded corners*
20,1,$1+$1,$2,$3,$4,$5,0*
20,1,$1+$1,$4,$5,$6,$7,0*
20,1,$1+$1,$6,$7,$8,$9,0*
20,1,$1+$1,$8,$9,$2,$3,0*%
G04 Aperture macros list end*
%ADD10C,0.650000*%
%ADD11O,2.100000X1.000000*%
%ADD12O,1.600000X1.000000*%
%ADD13O,3.500000X2.200000*%
%ADD14R,2.500000X1.500000*%
%ADD15O,2.500000X1.500000*%
%ADD16C,2.100000*%
%ADD17C,2.700000*%
%ADD18O,3.800000X2.300000*%
%ADD19RoundRect,0.700000X-0.700000X1.200000X-0.700000X-1.200000X0.700000X-1.200000X0.700000X1.200000X0*%
%ADD20O,2.300000X3.800000*%
%ADD21RoundRect,0.700000X1.200000X0.700000X-1.200000X0.700000X-1.200000X-0.700000X1.200000X-0.700000X0*%
%ADD22C,2.400000*%
%ADD23C,1.400000*%
%ADD24R,1.300000X1.300000*%
%ADD25C,4.000000*%
%ADD26R,1.600000X1.600000*%
%ADD27C,1.600000*%
%ADD28R,1.500000X1.500000*%
G04 APERTURE END LIST*
D10*
%TO.C,J1*%
X105610000Y-57545000D03*
X105610000Y-63325000D03*
D11*
X106140000Y-56115000D03*
X106140000Y-64755000D03*
D12*
X101960000Y-56115000D03*
X101960000Y-64755000D03*
%TD*%
D13*
%TO.C,SW1*%
X102616000Y-76966000D03*
X102616000Y-68766000D03*
D14*
X102616000Y-70866000D03*
D15*
X102616000Y-72866000D03*
X102616000Y-74866000D03*
%TD*%
D13*
%TO.C,SW2*%
X102616000Y-90936000D03*
X102616000Y-82736000D03*
D14*
X102616000Y-84836000D03*
D15*
X102616000Y-86836000D03*
X102616000Y-88836000D03*
%TD*%
D16*
%TO.C,H4*%
X184661249Y-83979228D03*
%TD*%
%TO.C,H3*%
X185000000Y-55000000D03*
%TD*%
D17*
%TO.C,J6*%
X189500000Y-75785000D03*
X196000000Y-72035000D03*
X196000000Y-79535000D03*
D18*
X188000000Y-81035000D03*
D19*
X196000000Y-75785000D03*
%TD*%
D17*
%TO.C,J8*%
X196000000Y-65580000D03*
X189500000Y-61830000D03*
X196000000Y-58080000D03*
D18*
X188000000Y-67080000D03*
D19*
X196000000Y-61830000D03*
%TD*%
D17*
%TO.C,J7*%
X189500000Y-89830000D03*
X196000000Y-93580000D03*
X196000000Y-86080000D03*
D18*
X188000000Y-95080000D03*
D19*
X196000000Y-89830000D03*
%TD*%
D16*
%TO.C,H1*%
X115000000Y-55000000D03*
%TD*%
%TO.C,H2*%
X115000000Y-85000000D03*
%TD*%
D17*
%TO.C,J5*%
X180170000Y-89500000D03*
X176420000Y-96000000D03*
X183920000Y-96000000D03*
D20*
X174920000Y-88000000D03*
D21*
X180170000Y-96000000D03*
%TD*%
D17*
%TO.C,J3*%
X155920000Y-96000000D03*
X152170000Y-89500000D03*
X148420000Y-96000000D03*
D20*
X146920000Y-88000000D03*
D21*
X152170000Y-96000000D03*
%TD*%
D22*
%TO.C,U1*%
X160075000Y-53885000D03*
X139925000Y-53885000D03*
D23*
X139195000Y-79825000D03*
X141415000Y-79825000D03*
X143635000Y-79825000D03*
X146615000Y-79825000D03*
X148835000Y-79825000D03*
X151815000Y-79825000D03*
X154035000Y-79825000D03*
X156255000Y-79825000D03*
X159235000Y-79825000D03*
X159235000Y-82215000D03*
X156255000Y-82215000D03*
X141415000Y-82215000D03*
X143635000Y-82215000D03*
X148835000Y-82215000D03*
X154035000Y-82215000D03*
X139195000Y-82215000D03*
X146615000Y-82215000D03*
X151815000Y-82215000D03*
D24*
X153925000Y-67165000D03*
X144350000Y-69710000D03*
%TD*%
D25*
%TO.C,J2*%
X139318950Y-94549005D03*
X114318950Y-94549005D03*
D26*
X131133950Y-92499005D03*
D27*
X128843950Y-92499005D03*
X126553950Y-92499005D03*
X124263950Y-92499005D03*
X121973950Y-92499005D03*
X132278950Y-94479005D03*
X129988950Y-94479005D03*
X127698950Y-94479005D03*
X125408950Y-94479005D03*
X123118950Y-94479005D03*
X131133950Y-96459005D03*
X128843950Y-96459005D03*
X126553950Y-96459005D03*
X124263950Y-96459005D03*
X121973950Y-96459005D03*
%TD*%
D17*
%TO.C,J4*%
X162411249Y-96000000D03*
X166161249Y-89500000D03*
X169911249Y-96000000D03*
D20*
X160911249Y-88000000D03*
D21*
X166161249Y-96000000D03*
%TD*%
D28*
%TO.C,J9*%
X138684000Y-69500000D03*
%TD*%
%TO.C,J10*%
X161290000Y-67229228D03*
%TD*%
M02*
