M48
; DRILL file {KiCad (5.1.10)-1} date 12/13/21 12:24:26
; FORMAT={-:-/ absolute / metric / decimal}
; #@! TF.CreationDate,2021-12-13T12:24:26+01:00
; #@! TF.GenerationSoftware,Kicad,Pcbnew,(5.1.10)-1
; #@! TF.FileFunction,NonPlated,1,2,NPTH
FMAT,2
METRIC
T1C0.500
T2C0.650
T3C2.100
T4C2.400
%
G90
G05
T1
X100.75Y-100.2
X100.75Y-102.8
X101.5Y-100.2
X101.5Y-102.8
X102.25Y-100.2
X102.25Y-102.8
X120.25Y-100.2
X120.25Y-102.8
X121.0Y-100.2
X121.0Y-102.8
X121.75Y-100.2
X121.75Y-102.8
X139.75Y-100.2
X139.75Y-102.8
X140.5Y-100.2
X140.5Y-102.8
X141.25Y-100.2
X141.25Y-102.8
X158.75Y-100.2
X158.75Y-102.8
X159.5Y-100.2
X159.5Y-102.8
X160.25Y-100.2
X160.25Y-102.8
X176.75Y-100.2
X176.75Y-102.8
X177.5Y-100.2
X177.5Y-102.8
X178.25Y-100.2
X178.25Y-102.8
X197.75Y-100.2
X197.75Y-102.8
X198.5Y-100.2
X198.5Y-102.8
X199.25Y-100.2
X199.25Y-102.8
T2
X105.61Y-57.545
X105.61Y-63.325
X105.61Y-139.675
X105.61Y-145.455
T3
X115.0Y-55.0
X115.0Y-85.0
X115.0Y-118.0
X115.0Y-148.0
X185.0Y-55.0
X185.0Y-85.0
X185.0Y-118.0
X185.0Y-148.0
T4
X139.925Y-54.925
X139.925Y-148.075
X160.075Y-54.925
X160.075Y-148.075
T0
M30
