%TF.GenerationSoftware,KiCad,Pcbnew,(5.1.10)-1*%
%TF.CreationDate,2021-12-13T12:24:24+01:00*%
%TF.ProjectId,Analog2HDMI_panel,416e616c-6f67-4324-9844-4d495f70616e,rev?*%
%TF.SameCoordinates,Original*%
%TF.FileFunction,Other,Comment*%
%FSLAX46Y46*%
G04 Gerber Fmt 4.6, Leading zero omitted, Abs format (unit mm)*
G04 Created by KiCad (PCBNEW (5.1.10)-1) date 2021-12-13 12:24:24*
%MOMM*%
%LPD*%
G01*
G04 APERTURE LIST*
%ADD10C,0.150000*%
G04 APERTURE END LIST*
D10*
X187904761Y-101857142D02*
X187857142Y-101904761D01*
X187714285Y-101952380D01*
X187619047Y-101952380D01*
X187476190Y-101904761D01*
X187380952Y-101809523D01*
X187333333Y-101714285D01*
X187285714Y-101523809D01*
X187285714Y-101380952D01*
X187333333Y-101190476D01*
X187380952Y-101095238D01*
X187476190Y-101000000D01*
X187619047Y-100952380D01*
X187714285Y-100952380D01*
X187857142Y-101000000D01*
X187904761Y-101047619D01*
X188333333Y-100952380D02*
X188333333Y-101761904D01*
X188380952Y-101857142D01*
X188428571Y-101904761D01*
X188523809Y-101952380D01*
X188714285Y-101952380D01*
X188809523Y-101904761D01*
X188857142Y-101857142D01*
X188904761Y-101761904D01*
X188904761Y-100952380D01*
X189238095Y-100952380D02*
X189809523Y-100952380D01*
X189523809Y-101952380D02*
X189523809Y-100952380D01*
X169404761Y-101857142D02*
X169357142Y-101904761D01*
X169214285Y-101952380D01*
X169119047Y-101952380D01*
X168976190Y-101904761D01*
X168880952Y-101809523D01*
X168833333Y-101714285D01*
X168785714Y-101523809D01*
X168785714Y-101380952D01*
X168833333Y-101190476D01*
X168880952Y-101095238D01*
X168976190Y-101000000D01*
X169119047Y-100952380D01*
X169214285Y-100952380D01*
X169357142Y-101000000D01*
X169404761Y-101047619D01*
X169833333Y-100952380D02*
X169833333Y-101761904D01*
X169880952Y-101857142D01*
X169928571Y-101904761D01*
X170023809Y-101952380D01*
X170214285Y-101952380D01*
X170309523Y-101904761D01*
X170357142Y-101857142D01*
X170404761Y-101761904D01*
X170404761Y-100952380D01*
X170738095Y-100952380D02*
X171309523Y-100952380D01*
X171023809Y-101952380D02*
X171023809Y-100952380D01*
X149404761Y-101857142D02*
X149357142Y-101904761D01*
X149214285Y-101952380D01*
X149119047Y-101952380D01*
X148976190Y-101904761D01*
X148880952Y-101809523D01*
X148833333Y-101714285D01*
X148785714Y-101523809D01*
X148785714Y-101380952D01*
X148833333Y-101190476D01*
X148880952Y-101095238D01*
X148976190Y-101000000D01*
X149119047Y-100952380D01*
X149214285Y-100952380D01*
X149357142Y-101000000D01*
X149404761Y-101047619D01*
X149833333Y-100952380D02*
X149833333Y-101761904D01*
X149880952Y-101857142D01*
X149928571Y-101904761D01*
X150023809Y-101952380D01*
X150214285Y-101952380D01*
X150309523Y-101904761D01*
X150357142Y-101857142D01*
X150404761Y-101761904D01*
X150404761Y-100952380D01*
X150738095Y-100952380D02*
X151309523Y-100952380D01*
X151023809Y-101952380D02*
X151023809Y-100952380D01*
X130404761Y-101857142D02*
X130357142Y-101904761D01*
X130214285Y-101952380D01*
X130119047Y-101952380D01*
X129976190Y-101904761D01*
X129880952Y-101809523D01*
X129833333Y-101714285D01*
X129785714Y-101523809D01*
X129785714Y-101380952D01*
X129833333Y-101190476D01*
X129880952Y-101095238D01*
X129976190Y-101000000D01*
X130119047Y-100952380D01*
X130214285Y-100952380D01*
X130357142Y-101000000D01*
X130404761Y-101047619D01*
X130833333Y-100952380D02*
X130833333Y-101761904D01*
X130880952Y-101857142D01*
X130928571Y-101904761D01*
X131023809Y-101952380D01*
X131214285Y-101952380D01*
X131309523Y-101904761D01*
X131357142Y-101857142D01*
X131404761Y-101761904D01*
X131404761Y-100952380D01*
X131738095Y-100952380D02*
X132309523Y-100952380D01*
X132023809Y-101952380D02*
X132023809Y-100952380D01*
X109904761Y-101857142D02*
X109857142Y-101904761D01*
X109714285Y-101952380D01*
X109619047Y-101952380D01*
X109476190Y-101904761D01*
X109380952Y-101809523D01*
X109333333Y-101714285D01*
X109285714Y-101523809D01*
X109285714Y-101380952D01*
X109333333Y-101190476D01*
X109380952Y-101095238D01*
X109476190Y-101000000D01*
X109619047Y-100952380D01*
X109714285Y-100952380D01*
X109857142Y-101000000D01*
X109904761Y-101047619D01*
X110333333Y-100952380D02*
X110333333Y-101761904D01*
X110380952Y-101857142D01*
X110428571Y-101904761D01*
X110523809Y-101952380D01*
X110714285Y-101952380D01*
X110809523Y-101904761D01*
X110857142Y-101857142D01*
X110904761Y-101761904D01*
X110904761Y-100952380D01*
X111238095Y-100952380D02*
X111809523Y-100952380D01*
X111523809Y-101952380D02*
X111523809Y-100952380D01*
%TO.C,H4*%
X187100000Y-118000000D02*
G75*
G03*
X187100000Y-118000000I-2100000J0D01*
G01*
%TO.C,H1*%
X117100000Y-148000000D02*
G75*
G03*
X117100000Y-148000000I-2100000J0D01*
G01*
%TO.C,H2*%
X117100000Y-118000000D02*
G75*
G03*
X117100000Y-118000000I-2100000J0D01*
G01*
%TO.C,H3*%
X187100000Y-148000000D02*
G75*
G03*
X187100000Y-148000000I-2100000J0D01*
G01*
%TO.C,H4*%
X187100000Y-85000000D02*
G75*
G03*
X187100000Y-85000000I-2100000J0D01*
G01*
%TO.C,H3*%
X187100000Y-55000000D02*
G75*
G03*
X187100000Y-55000000I-2100000J0D01*
G01*
%TO.C,H2*%
X117100000Y-85000000D02*
G75*
G03*
X117100000Y-85000000I-2100000J0D01*
G01*
%TO.C,H1*%
X117100000Y-55000000D02*
G75*
G03*
X117100000Y-55000000I-2100000J0D01*
G01*
%TD*%
M02*
