M48
; DRILL file {KiCad (5.1.10)-1} date 12/13/21 12:24:26
; FORMAT={-:-/ absolute / metric / decimal}
; #@! TF.CreationDate,2021-12-13T12:24:26+01:00
; #@! TF.GenerationSoftware,Kicad,Pcbnew,(5.1.10)-1
; #@! TF.FileFunction,Plated,1,2,PTH
FMAT,2
METRIC
T1C0.400
T2C0.600
T3C0.900
T4C1.000
T5C1.500
T6C1.700
T7C2.600
T8C3.200
%
G90
G05
T1
X108.458Y-58.166
X108.458Y-62.992
X108.458Y-140.008
X108.458Y-144.834
X127.0Y-70.612
X127.0Y-77.216
X127.0Y-125.784
X127.0Y-132.388
X129.794Y-70.612
X129.794Y-77.216
X129.794Y-125.784
X129.794Y-132.388
T3
X102.616Y-70.866
X102.616Y-72.866
X102.616Y-74.866
X102.616Y-84.836
X102.616Y-86.836
X102.616Y-88.836
X102.616Y-114.164
X102.616Y-116.164
X102.616Y-118.164
X102.616Y-128.134
X102.616Y-130.134
X102.616Y-132.134
T4
X124.9Y-92.5
X124.9Y-96.46
X124.9Y-106.54
X124.9Y-110.5
X126.045Y-94.48
X126.045Y-108.52
X127.19Y-92.5
X127.19Y-96.46
X127.19Y-106.54
X127.19Y-110.5
X128.335Y-94.48
X128.335Y-108.52
X129.48Y-92.5
X129.48Y-96.46
X129.48Y-106.54
X129.48Y-110.5
X130.625Y-94.48
X130.625Y-108.52
X131.77Y-92.5
X131.77Y-96.46
X131.77Y-106.54
X131.77Y-110.5
X132.915Y-94.48
X132.915Y-108.52
X134.06Y-92.5
X134.06Y-96.46
X134.06Y-106.54
X134.06Y-110.5
X135.205Y-94.48
X135.205Y-108.52
X139.195Y-80.865
X139.195Y-83.255
X139.195Y-119.745
X139.195Y-122.135
X141.415Y-80.865
X141.415Y-83.255
X141.415Y-119.745
X141.415Y-122.135
X143.635Y-80.865
X143.635Y-83.255
X143.635Y-119.745
X143.635Y-122.135
X146.615Y-80.865
X146.615Y-83.255
X146.615Y-119.745
X146.615Y-122.135
X148.835Y-80.865
X148.835Y-83.255
X148.835Y-119.745
X148.835Y-122.135
X151.815Y-80.865
X151.815Y-83.255
X151.815Y-119.745
X151.815Y-122.135
X154.035Y-80.865
X154.035Y-83.255
X154.035Y-119.745
X154.035Y-122.135
X156.255Y-80.865
X156.255Y-83.255
X156.255Y-119.745
X156.255Y-122.135
X159.235Y-80.865
X159.235Y-83.255
X159.235Y-119.745
X159.235Y-122.135
T5
X102.616Y-68.766
X102.616Y-76.966
X102.616Y-82.736
X102.616Y-90.936
X102.616Y-112.064
X102.616Y-120.264
X102.616Y-126.034
X102.616Y-134.234
T6
X156.145Y-94.25
X156.145Y-108.75
X170.145Y-94.25
X170.145Y-108.75
X184.145Y-94.25
X184.145Y-108.75
X194.355Y-61.735
X194.355Y-75.735
X194.355Y-89.735
X194.355Y-113.265
X194.355Y-127.265
X194.355Y-141.265
T7
X151.145Y-94.25
X151.145Y-108.75
X156.145Y-98.75
X156.145Y-104.25
X161.145Y-94.25
X161.145Y-108.75
X165.145Y-94.25
X165.145Y-108.75
X170.145Y-98.75
X170.145Y-104.25
X175.145Y-94.25
X175.145Y-108.75
X179.145Y-94.25
X179.145Y-108.75
X184.145Y-98.75
X184.145Y-104.25
X189.145Y-94.25
X189.145Y-108.75
X194.355Y-56.735
X194.355Y-66.735
X194.355Y-70.735
X194.355Y-80.735
X194.355Y-84.735
X194.355Y-94.735
X194.355Y-108.265
X194.355Y-118.265
X194.355Y-122.265
X194.355Y-132.265
X194.355Y-136.265
X194.355Y-146.265
X198.855Y-61.735
X198.855Y-75.735
X198.855Y-89.735
X198.855Y-113.265
X198.855Y-127.265
X198.855Y-141.265
T8
X117.245Y-94.55
X117.245Y-108.45
X142.245Y-94.55
X142.245Y-108.45
T2
G00X102.26Y-56.115
M15
G01X101.66Y-56.115
M16
G05
G00X102.26Y-64.755
M15
G01X101.66Y-64.755
M16
G05
G00X101.66Y-138.245
M15
G01X102.26Y-138.245
M16
G05
G00X101.66Y-146.885
M15
G01X102.26Y-146.885
M16
G05
G00X106.69Y-56.115
M15
G01X105.59Y-56.115
M16
G05
G00X106.69Y-64.755
M15
G01X105.59Y-64.755
M16
G05
G00X105.59Y-138.245
M15
G01X106.69Y-138.245
M16
G05
G00X105.59Y-146.885
M15
G01X106.69Y-146.885
M16
G05
T0
M30
