%TF.GenerationSoftware,KiCad,Pcbnew,(5.1.10)-1*%
%TF.CreationDate,2021-12-13T12:24:24+01:00*%
%TF.ProjectId,Analog2HDMI_panel,416e616c-6f67-4324-9844-4d495f70616e,rev?*%
%TF.SameCoordinates,Original*%
%TF.FileFunction,Legend,Bot*%
%TF.FilePolarity,Positive*%
%FSLAX46Y46*%
G04 Gerber Fmt 4.6, Leading zero omitted, Abs format (unit mm)*
G04 Created by KiCad (PCBNEW (5.1.10)-1) date 2021-12-13 12:24:24*
%MOMM*%
%LPD*%
G01*
G04 APERTURE LIST*
%ADD10C,0.300000*%
%ADD11C,0.120000*%
%ADD12C,0.127000*%
%ADD13C,0.150000*%
G04 APERTURE END LIST*
D10*
X160480714Y-143800000D02*
X161195000Y-143800000D01*
X160337857Y-143371428D02*
X160837857Y-144871428D01*
X161337857Y-143371428D01*
X161837857Y-144371428D02*
X161837857Y-143371428D01*
X161837857Y-144228571D02*
X161909285Y-144300000D01*
X162052142Y-144371428D01*
X162266428Y-144371428D01*
X162409285Y-144300000D01*
X162480714Y-144157142D01*
X162480714Y-143371428D01*
X163837857Y-143371428D02*
X163837857Y-144157142D01*
X163766428Y-144300000D01*
X163623571Y-144371428D01*
X163337857Y-144371428D01*
X163195000Y-144300000D01*
X163837857Y-143442857D02*
X163695000Y-143371428D01*
X163337857Y-143371428D01*
X163195000Y-143442857D01*
X163123571Y-143585714D01*
X163123571Y-143728571D01*
X163195000Y-143871428D01*
X163337857Y-143942857D01*
X163695000Y-143942857D01*
X163837857Y-144014285D01*
X164766428Y-143371428D02*
X164623571Y-143442857D01*
X164552142Y-143585714D01*
X164552142Y-144871428D01*
X165552142Y-143371428D02*
X165409285Y-143442857D01*
X165337857Y-143514285D01*
X165266428Y-143657142D01*
X165266428Y-144085714D01*
X165337857Y-144228571D01*
X165409285Y-144300000D01*
X165552142Y-144371428D01*
X165766428Y-144371428D01*
X165909285Y-144300000D01*
X165980714Y-144228571D01*
X166052142Y-144085714D01*
X166052142Y-143657142D01*
X165980714Y-143514285D01*
X165909285Y-143442857D01*
X165766428Y-143371428D01*
X165552142Y-143371428D01*
X167337857Y-144371428D02*
X167337857Y-143157142D01*
X167266428Y-143014285D01*
X167195000Y-142942857D01*
X167052142Y-142871428D01*
X166837857Y-142871428D01*
X166695000Y-142942857D01*
X167337857Y-143442857D02*
X167195000Y-143371428D01*
X166909285Y-143371428D01*
X166766428Y-143442857D01*
X166695000Y-143514285D01*
X166623571Y-143657142D01*
X166623571Y-144085714D01*
X166695000Y-144228571D01*
X166766428Y-144300000D01*
X166909285Y-144371428D01*
X167195000Y-144371428D01*
X167337857Y-144300000D01*
X167980714Y-144728571D02*
X168052142Y-144800000D01*
X168195000Y-144871428D01*
X168552142Y-144871428D01*
X168695000Y-144800000D01*
X168766428Y-144728571D01*
X168837857Y-144585714D01*
X168837857Y-144442857D01*
X168766428Y-144228571D01*
X167909285Y-143371428D01*
X168837857Y-143371428D01*
X169480714Y-143371428D02*
X169480714Y-144871428D01*
X169480714Y-144157142D02*
X170337857Y-144157142D01*
X170337857Y-143371428D02*
X170337857Y-144871428D01*
X171052142Y-143371428D02*
X171052142Y-144871428D01*
X171409285Y-144871428D01*
X171623571Y-144800000D01*
X171766428Y-144657142D01*
X171837857Y-144514285D01*
X171909285Y-144228571D01*
X171909285Y-144014285D01*
X171837857Y-143728571D01*
X171766428Y-143585714D01*
X171623571Y-143442857D01*
X171409285Y-143371428D01*
X171052142Y-143371428D01*
X172552142Y-143371428D02*
X172552142Y-144871428D01*
X173052142Y-143800000D01*
X173552142Y-144871428D01*
X173552142Y-143371428D01*
X174266428Y-143371428D02*
X174266428Y-144871428D01*
X176980714Y-143514285D02*
X176909285Y-143442857D01*
X176695000Y-143371428D01*
X176552142Y-143371428D01*
X176337857Y-143442857D01*
X176195000Y-143585714D01*
X176123571Y-143728571D01*
X176052142Y-144014285D01*
X176052142Y-144228571D01*
X176123571Y-144514285D01*
X176195000Y-144657142D01*
X176337857Y-144800000D01*
X176552142Y-144871428D01*
X176695000Y-144871428D01*
X176909285Y-144800000D01*
X176980714Y-144728571D01*
X178266428Y-143371428D02*
X178266428Y-144157142D01*
X178195000Y-144300000D01*
X178052142Y-144371428D01*
X177766428Y-144371428D01*
X177623571Y-144300000D01*
X178266428Y-143442857D02*
X178123571Y-143371428D01*
X177766428Y-143371428D01*
X177623571Y-143442857D01*
X177552142Y-143585714D01*
X177552142Y-143728571D01*
X177623571Y-143871428D01*
X177766428Y-143942857D01*
X178123571Y-143942857D01*
X178266428Y-144014285D01*
X178980714Y-143371428D02*
X178980714Y-144371428D01*
X178980714Y-144085714D02*
X179052142Y-144228571D01*
X179123571Y-144300000D01*
X179266428Y-144371428D01*
X179409285Y-144371428D01*
X179909285Y-143371428D02*
X179909285Y-144371428D01*
X179909285Y-144085714D02*
X179980714Y-144228571D01*
X180052142Y-144300000D01*
X180195000Y-144371428D01*
X180337857Y-144371428D01*
X180837857Y-143371428D02*
X180837857Y-144371428D01*
X180837857Y-144871428D02*
X180766428Y-144800000D01*
X180837857Y-144728571D01*
X180909285Y-144800000D01*
X180837857Y-144871428D01*
X180837857Y-144728571D01*
X182123571Y-143442857D02*
X181980714Y-143371428D01*
X181695000Y-143371428D01*
X181552142Y-143442857D01*
X181480714Y-143585714D01*
X181480714Y-144157142D01*
X181552142Y-144300000D01*
X181695000Y-144371428D01*
X181980714Y-144371428D01*
X182123571Y-144300000D01*
X182195000Y-144157142D01*
X182195000Y-144014285D01*
X181480714Y-143871428D01*
X182837857Y-143371428D02*
X182837857Y-144371428D01*
X182837857Y-144085714D02*
X182909285Y-144228571D01*
X182980714Y-144300000D01*
X183123571Y-144371428D01*
X183266428Y-144371428D01*
X183766428Y-143942857D02*
X184909285Y-143942857D01*
X186123571Y-144157142D02*
X186337857Y-144085714D01*
X186409285Y-144014285D01*
X186480714Y-143871428D01*
X186480714Y-143657142D01*
X186409285Y-143514285D01*
X186337857Y-143442857D01*
X186195000Y-143371428D01*
X185623571Y-143371428D01*
X185623571Y-144871428D01*
X186123571Y-144871428D01*
X186266428Y-144800000D01*
X186337857Y-144728571D01*
X186409285Y-144585714D01*
X186409285Y-144442857D01*
X186337857Y-144300000D01*
X186266428Y-144228571D01*
X186123571Y-144157142D01*
X185623571Y-144157142D01*
X187337857Y-143371428D02*
X187195000Y-143442857D01*
X187123571Y-143514285D01*
X187052142Y-143657142D01*
X187052142Y-144085714D01*
X187123571Y-144228571D01*
X187195000Y-144300000D01*
X187337857Y-144371428D01*
X187552142Y-144371428D01*
X187695000Y-144300000D01*
X187766428Y-144228571D01*
X187837857Y-144085714D01*
X187837857Y-143657142D01*
X187766428Y-143514285D01*
X187695000Y-143442857D01*
X187552142Y-143371428D01*
X187337857Y-143371428D01*
X189123571Y-143371428D02*
X189123571Y-144157142D01*
X189052142Y-144300000D01*
X188909285Y-144371428D01*
X188623571Y-144371428D01*
X188480714Y-144300000D01*
X189123571Y-143442857D02*
X188980714Y-143371428D01*
X188623571Y-143371428D01*
X188480714Y-143442857D01*
X188409285Y-143585714D01*
X188409285Y-143728571D01*
X188480714Y-143871428D01*
X188623571Y-143942857D01*
X188980714Y-143942857D01*
X189123571Y-144014285D01*
X189837857Y-143371428D02*
X189837857Y-144371428D01*
X189837857Y-144085714D02*
X189909285Y-144228571D01*
X189980714Y-144300000D01*
X190123571Y-144371428D01*
X190266428Y-144371428D01*
X191409285Y-143371428D02*
X191409285Y-144871428D01*
X191409285Y-143442857D02*
X191266428Y-143371428D01*
X190980714Y-143371428D01*
X190837857Y-143442857D01*
X190766428Y-143514285D01*
X190695000Y-143657142D01*
X190695000Y-144085714D01*
X190766428Y-144228571D01*
X190837857Y-144300000D01*
X190980714Y-144371428D01*
X191266428Y-144371428D01*
X191409285Y-144300000D01*
X160552142Y-140821428D02*
X160552142Y-142321428D01*
X160552142Y-141750000D02*
X160695000Y-141821428D01*
X160980714Y-141821428D01*
X161123571Y-141750000D01*
X161195000Y-141678571D01*
X161266428Y-141535714D01*
X161266428Y-141107142D01*
X161195000Y-140964285D01*
X161123571Y-140892857D01*
X160980714Y-140821428D01*
X160695000Y-140821428D01*
X160552142Y-140892857D01*
X161766428Y-141821428D02*
X162123571Y-140821428D01*
X162480714Y-141821428D02*
X162123571Y-140821428D01*
X161980714Y-140464285D01*
X161909285Y-140392857D01*
X161766428Y-140321428D01*
X164195000Y-140821428D02*
X164195000Y-142321428D01*
X164695000Y-141250000D01*
X165195000Y-142321428D01*
X165195000Y-140821428D01*
X166552142Y-140821428D02*
X166552142Y-141607142D01*
X166480714Y-141750000D01*
X166337857Y-141821428D01*
X166052142Y-141821428D01*
X165909285Y-141750000D01*
X166552142Y-140892857D02*
X166409285Y-140821428D01*
X166052142Y-140821428D01*
X165909285Y-140892857D01*
X165837857Y-141035714D01*
X165837857Y-141178571D01*
X165909285Y-141321428D01*
X166052142Y-141392857D01*
X166409285Y-141392857D01*
X166552142Y-141464285D01*
X167266428Y-141821428D02*
X167266428Y-140821428D01*
X167266428Y-141678571D02*
X167337857Y-141750000D01*
X167480714Y-141821428D01*
X167695000Y-141821428D01*
X167837857Y-141750000D01*
X167909285Y-141607142D01*
X167909285Y-140821428D01*
X169480714Y-140964285D02*
X169409285Y-140892857D01*
X169195000Y-140821428D01*
X169052142Y-140821428D01*
X168837857Y-140892857D01*
X168695000Y-141035714D01*
X168623571Y-141178571D01*
X168552142Y-141464285D01*
X168552142Y-141678571D01*
X168623571Y-141964285D01*
X168695000Y-142107142D01*
X168837857Y-142250000D01*
X169052142Y-142321428D01*
X169195000Y-142321428D01*
X169409285Y-142250000D01*
X169480714Y-142178571D01*
X170337857Y-140821428D02*
X170195000Y-140892857D01*
X170123571Y-141035714D01*
X170123571Y-142321428D01*
X171123571Y-140821428D02*
X170980714Y-140892857D01*
X170909285Y-140964285D01*
X170837857Y-141107142D01*
X170837857Y-141535714D01*
X170909285Y-141678571D01*
X170980714Y-141750000D01*
X171123571Y-141821428D01*
X171337857Y-141821428D01*
X171480714Y-141750000D01*
X171552142Y-141678571D01*
X171623571Y-141535714D01*
X171623571Y-141107142D01*
X171552142Y-140964285D01*
X171480714Y-140892857D01*
X171337857Y-140821428D01*
X171123571Y-140821428D01*
X172909285Y-141821428D02*
X172909285Y-140821428D01*
X172266428Y-141821428D02*
X172266428Y-141035714D01*
X172337857Y-140892857D01*
X172480714Y-140821428D01*
X172695000Y-140821428D01*
X172837857Y-140892857D01*
X172909285Y-140964285D01*
X174266428Y-140821428D02*
X174266428Y-142321428D01*
X174266428Y-140892857D02*
X174123571Y-140821428D01*
X173837857Y-140821428D01*
X173695000Y-140892857D01*
X173623571Y-140964285D01*
X173552142Y-141107142D01*
X173552142Y-141535714D01*
X173623571Y-141678571D01*
X173695000Y-141750000D01*
X173837857Y-141821428D01*
X174123571Y-141821428D01*
X174266428Y-141750000D01*
X160409285Y-139271428D02*
X160766428Y-138271428D01*
X161123571Y-139271428D01*
X161623571Y-139628571D02*
X161695000Y-139700000D01*
X161837857Y-139771428D01*
X162195000Y-139771428D01*
X162337857Y-139700000D01*
X162409285Y-139628571D01*
X162480714Y-139485714D01*
X162480714Y-139342857D01*
X162409285Y-139128571D01*
X161552142Y-138271428D01*
X162480714Y-138271428D01*
X163409285Y-139771428D02*
X163552142Y-139771428D01*
X163695000Y-139700000D01*
X163766428Y-139628571D01*
X163837857Y-139485714D01*
X163909285Y-139200000D01*
X163909285Y-138842857D01*
X163837857Y-138557142D01*
X163766428Y-138414285D01*
X163695000Y-138342857D01*
X163552142Y-138271428D01*
X163409285Y-138271428D01*
X163266428Y-138342857D01*
X163195000Y-138414285D01*
X163123571Y-138557142D01*
X163052142Y-138842857D01*
X163052142Y-139200000D01*
X163123571Y-139485714D01*
X163195000Y-139628571D01*
X163266428Y-139700000D01*
X163409285Y-139771428D01*
X164480714Y-139628571D02*
X164552142Y-139700000D01*
X164695000Y-139771428D01*
X165052142Y-139771428D01*
X165195000Y-139700000D01*
X165266428Y-139628571D01*
X165337857Y-139485714D01*
X165337857Y-139342857D01*
X165266428Y-139128571D01*
X164409285Y-138271428D01*
X165337857Y-138271428D01*
X166766428Y-138271428D02*
X165909285Y-138271428D01*
X166337857Y-138271428D02*
X166337857Y-139771428D01*
X166195000Y-139557142D01*
X166052142Y-139414285D01*
X165909285Y-139342857D01*
X168195000Y-138271428D02*
X167337857Y-138271428D01*
X167766428Y-138271428D02*
X167766428Y-139771428D01*
X167623571Y-139557142D01*
X167480714Y-139414285D01*
X167337857Y-139342857D01*
X168766428Y-139628571D02*
X168837857Y-139700000D01*
X168980714Y-139771428D01*
X169337857Y-139771428D01*
X169480714Y-139700000D01*
X169552142Y-139628571D01*
X169623571Y-139485714D01*
X169623571Y-139342857D01*
X169552142Y-139128571D01*
X168695000Y-138271428D01*
X169623571Y-138271428D01*
X171052142Y-138271428D02*
X170195000Y-138271428D01*
X170623571Y-138271428D02*
X170623571Y-139771428D01*
X170480714Y-139557142D01*
X170337857Y-139414285D01*
X170195000Y-139342857D01*
X171552142Y-139771428D02*
X172480714Y-139771428D01*
X171980714Y-139200000D01*
X172195000Y-139200000D01*
X172337857Y-139128571D01*
X172409285Y-139057142D01*
X172480714Y-138914285D01*
X172480714Y-138557142D01*
X172409285Y-138414285D01*
X172337857Y-138342857D01*
X172195000Y-138271428D01*
X171766428Y-138271428D01*
X171623571Y-138342857D01*
X171552142Y-138414285D01*
D11*
%TO.C,J2*%
X134060000Y-112631325D02*
X133810000Y-113064338D01*
X134310000Y-113064338D02*
X134060000Y-112631325D01*
X133810000Y-113064338D02*
X134310000Y-113064338D01*
X145230000Y-112170000D02*
X145230000Y-103570000D01*
X114260000Y-112170000D02*
X145230000Y-112170000D01*
X114260000Y-103570000D02*
X114260000Y-112170000D01*
%TO.C,R1*%
X111540000Y-140760436D02*
X111540000Y-142214564D01*
X109720000Y-140760436D02*
X109720000Y-142214564D01*
D12*
%TO.C,J3*%
X160445000Y-102630000D02*
X160445000Y-97550000D01*
X158835000Y-95900000D02*
X153755000Y-95900000D01*
X152145000Y-97550000D02*
X152145000Y-102630000D01*
X161375000Y-106440000D02*
X161375000Y-103900000D01*
X151215000Y-106440000D02*
X151215000Y-103900000D01*
X161375000Y-103900000D02*
G75*
G02*
X160445000Y-102630000I170000J1100000D01*
G01*
X152145000Y-102630000D02*
G75*
G02*
X151215000Y-103900000I-1100000J-170000D01*
G01*
X153755000Y-95900000D02*
G75*
G03*
X152145000Y-97550000I20000J-1630000D01*
G01*
X160445000Y-97550000D02*
G75*
G03*
X158835000Y-95900000I-1630000J20000D01*
G01*
%TO.C,J4*%
X174445000Y-102630000D02*
X174445000Y-97550000D01*
X172835000Y-95900000D02*
X167755000Y-95900000D01*
X166145000Y-97550000D02*
X166145000Y-102630000D01*
X175375000Y-106440000D02*
X175375000Y-103900000D01*
X165215000Y-106440000D02*
X165215000Y-103900000D01*
X174445000Y-97550000D02*
G75*
G03*
X172835000Y-95900000I-1630000J20000D01*
G01*
X167755000Y-95900000D02*
G75*
G03*
X166145000Y-97550000I20000J-1630000D01*
G01*
X166145000Y-102630000D02*
G75*
G02*
X165215000Y-103900000I-1100000J-170000D01*
G01*
X175375000Y-103900000D02*
G75*
G02*
X174445000Y-102630000I170000J1100000D01*
G01*
%TO.C,J5*%
X179215000Y-106440000D02*
X179215000Y-103900000D01*
X189375000Y-106440000D02*
X189375000Y-103900000D01*
X180145000Y-97550000D02*
X180145000Y-102630000D01*
X186835000Y-95900000D02*
X181755000Y-95900000D01*
X188445000Y-102630000D02*
X188445000Y-97550000D01*
X189375000Y-103900000D02*
G75*
G02*
X188445000Y-102630000I170000J1100000D01*
G01*
X180145000Y-102630000D02*
G75*
G02*
X179215000Y-103900000I-1100000J-170000D01*
G01*
X181755000Y-95900000D02*
G75*
G03*
X180145000Y-97550000I20000J-1630000D01*
G01*
X188445000Y-97550000D02*
G75*
G03*
X186835000Y-95900000I-1630000J20000D01*
G01*
%TO.C,J6*%
X196665000Y-122335000D02*
X199205000Y-122335000D01*
X196665000Y-132495000D02*
X199205000Y-132495000D01*
X205555000Y-123265000D02*
X200475000Y-123265000D01*
X207205000Y-129955000D02*
X207205000Y-124875000D01*
X200475000Y-131565000D02*
X205555000Y-131565000D01*
X199205000Y-132495000D02*
G75*
G02*
X200475000Y-131565000I1100000J-170000D01*
G01*
X200475000Y-123265000D02*
G75*
G02*
X199205000Y-122335000I-170000J1100000D01*
G01*
X207205000Y-124875000D02*
G75*
G03*
X205555000Y-123265000I-1630000J-20000D01*
G01*
X205555000Y-131565000D02*
G75*
G03*
X207205000Y-129955000I20000J1630000D01*
G01*
%TO.C,J7*%
X200475000Y-117565000D02*
X205555000Y-117565000D01*
X207205000Y-115955000D02*
X207205000Y-110875000D01*
X205555000Y-109265000D02*
X200475000Y-109265000D01*
X196665000Y-118495000D02*
X199205000Y-118495000D01*
X196665000Y-108335000D02*
X199205000Y-108335000D01*
X199205000Y-118495000D02*
G75*
G02*
X200475000Y-117565000I1100000J-170000D01*
G01*
X200475000Y-109265000D02*
G75*
G02*
X199205000Y-108335000I-170000J1100000D01*
G01*
X207205000Y-110875000D02*
G75*
G03*
X205555000Y-109265000I-1630000J-20000D01*
G01*
X205555000Y-117565000D02*
G75*
G03*
X207205000Y-115955000I20000J1630000D01*
G01*
%TO.C,J8*%
X196665000Y-136335000D02*
X199205000Y-136335000D01*
X196665000Y-146495000D02*
X199205000Y-146495000D01*
X205555000Y-137265000D02*
X200475000Y-137265000D01*
X207205000Y-143955000D02*
X207205000Y-138875000D01*
X200475000Y-145565000D02*
X205555000Y-145565000D01*
X205555000Y-145565000D02*
G75*
G03*
X207205000Y-143955000I20000J1630000D01*
G01*
X207205000Y-138875000D02*
G75*
G03*
X205555000Y-137265000I-1630000J-20000D01*
G01*
X200475000Y-137265000D02*
G75*
G02*
X199205000Y-136335000I-170000J1100000D01*
G01*
X199205000Y-146495000D02*
G75*
G02*
X200475000Y-145565000I1100000J-170000D01*
G01*
D11*
%TO.C,J1*%
X101010000Y-147265000D02*
X99110000Y-147265000D01*
X104910000Y-147265000D02*
X102910000Y-147265000D01*
X101010000Y-137865000D02*
X99110000Y-137865000D01*
X104910000Y-137865000D02*
X102910000Y-137865000D01*
X99110000Y-147265000D02*
X99110000Y-137865000D01*
D13*
%TO.C,SW1*%
X104916000Y-134434000D02*
X104916000Y-125834000D01*
X100316000Y-134434000D02*
X100316000Y-132234000D01*
X100316000Y-128134000D02*
X100316000Y-125834000D01*
%TO.C,SW2*%
X104916000Y-120464000D02*
X104916000Y-111864000D01*
X100316000Y-120464000D02*
X100316000Y-118264000D01*
X100316000Y-114164000D02*
X100316000Y-111864000D01*
D11*
%TO.C,J10*%
X160340000Y-69022000D02*
X162240000Y-69022000D01*
X162240000Y-69022000D02*
X162240000Y-67122000D01*
X162240000Y-67122000D02*
X160340000Y-67122000D01*
X160340000Y-67122000D02*
X160340000Y-69022000D01*
%TO.C,J9*%
X137734000Y-71562000D02*
X139634000Y-71562000D01*
X139634000Y-71562000D02*
X139634000Y-69662000D01*
X139634000Y-69662000D02*
X137734000Y-69662000D01*
X137734000Y-69662000D02*
X137734000Y-71562000D01*
%TO.C,H4*%
D13*
X185761904Y-118362380D02*
X185761904Y-117362380D01*
X185761904Y-117838571D02*
X185190476Y-117838571D01*
X185190476Y-118362380D02*
X185190476Y-117362380D01*
X184285714Y-117695714D02*
X184285714Y-118362380D01*
X184523809Y-117314761D02*
X184761904Y-118029047D01*
X184142857Y-118029047D01*
%TO.C,H1*%
X115823904Y-148334380D02*
X115823904Y-147334380D01*
X115823904Y-147810571D02*
X115252476Y-147810571D01*
X115252476Y-148334380D02*
X115252476Y-147334380D01*
X114252476Y-148334380D02*
X114823904Y-148334380D01*
X114538190Y-148334380D02*
X114538190Y-147334380D01*
X114633428Y-147477238D01*
X114728666Y-147572476D01*
X114823904Y-147620095D01*
%TO.C,H2*%
X115823904Y-118362380D02*
X115823904Y-117362380D01*
X115823904Y-117838571D02*
X115252476Y-117838571D01*
X115252476Y-118362380D02*
X115252476Y-117362380D01*
X114823904Y-117457619D02*
X114776285Y-117410000D01*
X114681047Y-117362380D01*
X114442952Y-117362380D01*
X114347714Y-117410000D01*
X114300095Y-117457619D01*
X114252476Y-117552857D01*
X114252476Y-117648095D01*
X114300095Y-117790952D01*
X114871523Y-118362380D01*
X114252476Y-118362380D01*
%TO.C,J2*%
X112855333Y-104916380D02*
X112855333Y-105630666D01*
X112902952Y-105773523D01*
X112998190Y-105868761D01*
X113141047Y-105916380D01*
X113236285Y-105916380D01*
X112426761Y-105011619D02*
X112379142Y-104964000D01*
X112283904Y-104916380D01*
X112045809Y-104916380D01*
X111950571Y-104964000D01*
X111902952Y-105011619D01*
X111855333Y-105106857D01*
X111855333Y-105202095D01*
X111902952Y-105344952D01*
X112474380Y-105916380D01*
X111855333Y-105916380D01*
%TO.C,R1*%
X110942380Y-138063333D02*
X110466190Y-137730000D01*
X110942380Y-137491904D02*
X109942380Y-137491904D01*
X109942380Y-137872857D01*
X109990000Y-137968095D01*
X110037619Y-138015714D01*
X110132857Y-138063333D01*
X110275714Y-138063333D01*
X110370952Y-138015714D01*
X110418571Y-137968095D01*
X110466190Y-137872857D01*
X110466190Y-137491904D01*
X110942380Y-139015714D02*
X110942380Y-138444285D01*
X110942380Y-138730000D02*
X109942380Y-138730000D01*
X110085238Y-138634761D01*
X110180476Y-138539523D01*
X110228095Y-138444285D01*
%TO.C,J3*%
X161758380Y-104876666D02*
X162472666Y-104876666D01*
X162615523Y-104829047D01*
X162710761Y-104733809D01*
X162758380Y-104590952D01*
X162758380Y-104495714D01*
X161758380Y-105257619D02*
X161758380Y-105876666D01*
X162139333Y-105543333D01*
X162139333Y-105686190D01*
X162186952Y-105781428D01*
X162234571Y-105829047D01*
X162329809Y-105876666D01*
X162567904Y-105876666D01*
X162663142Y-105829047D01*
X162710761Y-105781428D01*
X162758380Y-105686190D01*
X162758380Y-105400476D01*
X162710761Y-105305238D01*
X162663142Y-105257619D01*
%TO.C,J4*%
X175728380Y-104622666D02*
X176442666Y-104622666D01*
X176585523Y-104575047D01*
X176680761Y-104479809D01*
X176728380Y-104336952D01*
X176728380Y-104241714D01*
X176061714Y-105527428D02*
X176728380Y-105527428D01*
X175680761Y-105289333D02*
X176395047Y-105051238D01*
X176395047Y-105670285D01*
%TO.C,J5*%
X189952380Y-104622666D02*
X190666666Y-104622666D01*
X190809523Y-104575047D01*
X190904761Y-104479809D01*
X190952380Y-104336952D01*
X190952380Y-104241714D01*
X189952380Y-105575047D02*
X189952380Y-105098857D01*
X190428571Y-105051238D01*
X190380952Y-105098857D01*
X190333333Y-105194095D01*
X190333333Y-105432190D01*
X190380952Y-105527428D01*
X190428571Y-105575047D01*
X190523809Y-105622666D01*
X190761904Y-105622666D01*
X190857142Y-105575047D01*
X190904761Y-105527428D01*
X190952380Y-105432190D01*
X190952380Y-105194095D01*
X190904761Y-105098857D01*
X190857142Y-105051238D01*
%TO.C,H3*%
X185761904Y-148334380D02*
X185761904Y-147334380D01*
X185761904Y-147810571D02*
X185190476Y-147810571D01*
X185190476Y-148334380D02*
X185190476Y-147334380D01*
X184809523Y-147334380D02*
X184190476Y-147334380D01*
X184523809Y-147715333D01*
X184380952Y-147715333D01*
X184285714Y-147762952D01*
X184238095Y-147810571D01*
X184190476Y-147905809D01*
X184190476Y-148143904D01*
X184238095Y-148239142D01*
X184285714Y-148286761D01*
X184380952Y-148334380D01*
X184666666Y-148334380D01*
X184761904Y-148286761D01*
X184809523Y-148239142D01*
%TO.C,U1*%
X164591904Y-120410380D02*
X164591904Y-121219904D01*
X164544285Y-121315142D01*
X164496666Y-121362761D01*
X164401428Y-121410380D01*
X164210952Y-121410380D01*
X164115714Y-121362761D01*
X164068095Y-121315142D01*
X164020476Y-121219904D01*
X164020476Y-120410380D01*
X163020476Y-121410380D02*
X163591904Y-121410380D01*
X163306190Y-121410380D02*
X163306190Y-120410380D01*
X163401428Y-120553238D01*
X163496666Y-120648476D01*
X163591904Y-120696095D01*
%TO.C,J6*%
X198199333Y-132856380D02*
X198199333Y-133570666D01*
X198246952Y-133713523D01*
X198342190Y-133808761D01*
X198485047Y-133856380D01*
X198580285Y-133856380D01*
X197294571Y-132856380D02*
X197485047Y-132856380D01*
X197580285Y-132904000D01*
X197627904Y-132951619D01*
X197723142Y-133094476D01*
X197770761Y-133284952D01*
X197770761Y-133665904D01*
X197723142Y-133761142D01*
X197675523Y-133808761D01*
X197580285Y-133856380D01*
X197389809Y-133856380D01*
X197294571Y-133808761D01*
X197246952Y-133761142D01*
X197199333Y-133665904D01*
X197199333Y-133427809D01*
X197246952Y-133332571D01*
X197294571Y-133284952D01*
X197389809Y-133237333D01*
X197580285Y-133237333D01*
X197675523Y-133284952D01*
X197723142Y-133332571D01*
X197770761Y-133427809D01*
%TO.C,J7*%
X198453333Y-118886380D02*
X198453333Y-119600666D01*
X198500952Y-119743523D01*
X198596190Y-119838761D01*
X198739047Y-119886380D01*
X198834285Y-119886380D01*
X198072380Y-118886380D02*
X197405714Y-118886380D01*
X197834285Y-119886380D01*
%TO.C,J8*%
X198199333Y-146826380D02*
X198199333Y-147540666D01*
X198246952Y-147683523D01*
X198342190Y-147778761D01*
X198485047Y-147826380D01*
X198580285Y-147826380D01*
X197580285Y-147254952D02*
X197675523Y-147207333D01*
X197723142Y-147159714D01*
X197770761Y-147064476D01*
X197770761Y-147016857D01*
X197723142Y-146921619D01*
X197675523Y-146874000D01*
X197580285Y-146826380D01*
X197389809Y-146826380D01*
X197294571Y-146874000D01*
X197246952Y-146921619D01*
X197199333Y-147016857D01*
X197199333Y-147064476D01*
X197246952Y-147159714D01*
X197294571Y-147207333D01*
X197389809Y-147254952D01*
X197580285Y-147254952D01*
X197675523Y-147302571D01*
X197723142Y-147350190D01*
X197770761Y-147445428D01*
X197770761Y-147635904D01*
X197723142Y-147731142D01*
X197675523Y-147778761D01*
X197580285Y-147826380D01*
X197389809Y-147826380D01*
X197294571Y-147778761D01*
X197246952Y-147731142D01*
X197199333Y-147635904D01*
X197199333Y-147445428D01*
X197246952Y-147350190D01*
X197294571Y-147302571D01*
X197389809Y-147254952D01*
%TO.C,J1*%
X105624380Y-148564666D02*
X106338666Y-148564666D01*
X106481523Y-148517047D01*
X106576761Y-148421809D01*
X106624380Y-148278952D01*
X106624380Y-148183714D01*
X106624380Y-149564666D02*
X106624380Y-148993238D01*
X106624380Y-149278952D02*
X105624380Y-149278952D01*
X105767238Y-149183714D01*
X105862476Y-149088476D01*
X105910095Y-148993238D01*
%TO.C,SW1*%
X106576761Y-124704666D02*
X106624380Y-124847523D01*
X106624380Y-125085619D01*
X106576761Y-125180857D01*
X106529142Y-125228476D01*
X106433904Y-125276095D01*
X106338666Y-125276095D01*
X106243428Y-125228476D01*
X106195809Y-125180857D01*
X106148190Y-125085619D01*
X106100571Y-124895142D01*
X106052952Y-124799904D01*
X106005333Y-124752285D01*
X105910095Y-124704666D01*
X105814857Y-124704666D01*
X105719619Y-124752285D01*
X105672000Y-124799904D01*
X105624380Y-124895142D01*
X105624380Y-125133238D01*
X105672000Y-125276095D01*
X105624380Y-125609428D02*
X106624380Y-125847523D01*
X105910095Y-126038000D01*
X106624380Y-126228476D01*
X105624380Y-126466571D01*
X106624380Y-127371333D02*
X106624380Y-126799904D01*
X106624380Y-127085619D02*
X105624380Y-127085619D01*
X105767238Y-126990380D01*
X105862476Y-126895142D01*
X105910095Y-126799904D01*
%TO.C,SW2*%
X106620761Y-110480666D02*
X106668380Y-110623523D01*
X106668380Y-110861619D01*
X106620761Y-110956857D01*
X106573142Y-111004476D01*
X106477904Y-111052095D01*
X106382666Y-111052095D01*
X106287428Y-111004476D01*
X106239809Y-110956857D01*
X106192190Y-110861619D01*
X106144571Y-110671142D01*
X106096952Y-110575904D01*
X106049333Y-110528285D01*
X105954095Y-110480666D01*
X105858857Y-110480666D01*
X105763619Y-110528285D01*
X105716000Y-110575904D01*
X105668380Y-110671142D01*
X105668380Y-110909238D01*
X105716000Y-111052095D01*
X105668380Y-111385428D02*
X106668380Y-111623523D01*
X105954095Y-111814000D01*
X106668380Y-112004476D01*
X105668380Y-112242571D01*
X105763619Y-112575904D02*
X105716000Y-112623523D01*
X105668380Y-112718761D01*
X105668380Y-112956857D01*
X105716000Y-113052095D01*
X105763619Y-113099714D01*
X105858857Y-113147333D01*
X105954095Y-113147333D01*
X106096952Y-113099714D01*
X106668380Y-112528285D01*
X106668380Y-113147333D01*
%TO.C,J10*%
X164893523Y-67524380D02*
X164893523Y-68238666D01*
X164941142Y-68381523D01*
X165036380Y-68476761D01*
X165179238Y-68524380D01*
X165274476Y-68524380D01*
X163893523Y-68524380D02*
X164464952Y-68524380D01*
X164179238Y-68524380D02*
X164179238Y-67524380D01*
X164274476Y-67667238D01*
X164369714Y-67762476D01*
X164464952Y-67810095D01*
X163274476Y-67524380D02*
X163179238Y-67524380D01*
X163084000Y-67572000D01*
X163036380Y-67619619D01*
X162988761Y-67714857D01*
X162941142Y-67905333D01*
X162941142Y-68143428D01*
X162988761Y-68333904D01*
X163036380Y-68429142D01*
X163084000Y-68476761D01*
X163179238Y-68524380D01*
X163274476Y-68524380D01*
X163369714Y-68476761D01*
X163417333Y-68429142D01*
X163464952Y-68333904D01*
X163512571Y-68143428D01*
X163512571Y-67905333D01*
X163464952Y-67714857D01*
X163417333Y-67619619D01*
X163369714Y-67572000D01*
X163274476Y-67524380D01*
%TO.C,J9*%
X136985333Y-70064380D02*
X136985333Y-70778666D01*
X137032952Y-70921523D01*
X137128190Y-71016761D01*
X137271047Y-71064380D01*
X137366285Y-71064380D01*
X136461523Y-71064380D02*
X136271047Y-71064380D01*
X136175809Y-71016761D01*
X136128190Y-70969142D01*
X136032952Y-70826285D01*
X135985333Y-70635809D01*
X135985333Y-70254857D01*
X136032952Y-70159619D01*
X136080571Y-70112000D01*
X136175809Y-70064380D01*
X136366285Y-70064380D01*
X136461523Y-70112000D01*
X136509142Y-70159619D01*
X136556761Y-70254857D01*
X136556761Y-70492952D01*
X136509142Y-70588190D01*
X136461523Y-70635809D01*
X136366285Y-70683428D01*
X136175809Y-70683428D01*
X136080571Y-70635809D01*
X136032952Y-70588190D01*
X135985333Y-70492952D01*
%TD*%
M02*
